<?xml version="1.0" standalone="no"?><!DOCTYPE svg PUBLIC "-//W3C//DTD SVG 1.1//EN" "http://www.w3.org/Graphics/SVG/1.1/DTD/svg11.dtd"><svg t="1493264826756" class="icon" style="" viewBox="0 0 1024 1024" version="1.1" xmlns="http://www.w3.org/2000/svg" p-id="2365" xmlns:xlink="http://www.w3.org/1999/xlink" width="200" height="200"><defs><style type="text/css"></style></defs><path d="M827.164 92.682c8.458 0 16.968 0.66 25.392 1.998 8.424 1.32 16.778 3.316 24.906 5.958 8.146 2.656 16.1 5.992 23.708 9.97 7.624 4.012 14.936 8.666 21.796 14.016 13.738 10.734 24.402 23.17 31.888 36.49 7.52 13.374 11.862 27.668 12.922 42.03 1.076 14.432-1.164 28.918-6.774 42.622-5.644 13.756-14.694 26.712-27.25 37.95-6.288 5.644-13.164 10.594-20.478 14.832-7.312 4.256-15.092 7.798-23.168 10.63-8.076 2.848-16.482 4.984-25.044 6.408-8.58 1.424-17.334 2.136-26.122 2.136-4.15 0-8.302-0.174-12.47-0.486-4.15-0.312-8.302-0.798-12.418-1.424-4.134-0.642-8.232-1.442-12.314-2.38-4.064-0.956-8.094-2.066-12.088-3.334l-110.026 97.034c7.85 12.366 13.79 25.426 17.802 38.87 4.046 13.494 6.148 27.354 6.304 41.248 0.14 13.982-1.684 27.98-5.524 41.666-3.838 13.738-9.708 27.164-17.594 39.93l118.416 102.28c4.568-1.824 9.222-3.422 13.946-4.794 4.724-1.372 9.518-2.518 14.364-3.422 4.846-0.92 9.744-1.598 14.676-2.066 4.932-0.452 9.9-0.678 14.866-0.678 9.258 0 18.566 0.798 27.788 2.38 9.222 1.58 18.376 3.96 27.286 7.138 8.926 3.178 17.646 7.156 26 11.932 8.372 4.776 16.396 10.368 23.934 16.778 15.11 12.852 26.868 27.754 35.17 43.716 8.336 16.066 13.2 33.208 14.484 50.436 1.286 17.334-1.042 34.736-7.104 51.202-6.078 16.552-15.908 32.114-29.596 45.66-6.86 6.79-14.364 12.73-22.37 17.836-8.006 5.124-16.5 9.396-25.358 12.818-8.858 3.422-18.062 5.992-27.458 7.694-9.396 1.72-19 2.588-28.64 2.588-9.656 0-19.348-0.868-28.936-2.588-9.57-1.702-19.036-4.272-28.258-7.694-9.206-3.422-18.15-7.694-26.694-12.818-8.528-5.106-16.656-11.046-24.228-17.836-12.418-11.134-22.37-23.638-29.856-36.908-7.468-13.234-12.47-27.234-15.04-41.44-2.536-14.12-2.658-28.45-0.348-42.378 2.31-13.894 7.034-27.406 14.172-39.982l-113.622-99.884c-8.094 4.742-16.5 8.91-25.166 12.47-8.666 3.578-17.594 6.566-26.66 8.944-9.1 2.38-18.358 4.168-27.684 5.366-9.344 1.198-18.774 1.806-28.188 1.806-7.92 0-15.822-0.434-23.69-1.268-7.868-0.85-15.684-2.118-23.394-3.804-7.712-1.668-15.318-3.768-22.786-6.304-7.452-2.518-14.78-5.454-21.884-8.806l-121.94 107.542c4.62 11.898 7.278 24.368 8.006 36.994 0.712 12.662-0.52 25.496-3.716 38.088-3.214 12.644-8.388 25.026-15.544 36.75-7.172 11.758-16.326 22.838-27.442 32.808-7.572 6.79-15.702 12.73-24.228 17.836-8.546 5.124-17.49 9.396-26.696 12.818-9.222 3.422-18.688 5.992-28.274 7.694-9.57 1.72-19.262 2.588-28.9 2.588-9.656 0-19.262-0.868-28.658-2.588-9.396-1.702-18.602-4.272-27.458-7.694-8.84-3.422-17.35-7.694-25.358-12.818-7.99-5.106-15.492-11.046-22.352-17.836-13.686-13.546-23.516-29.108-29.612-45.66-6.044-16.464-8.388-33.868-7.104-51.202 1.286-17.228 6.148-34.372 14.484-50.436 8.302-15.96 20.06-30.862 35.188-43.716 7.538-6.392 15.562-11.984 23.934-16.778 8.354-4.776 17.056-8.754 25.982-11.932 8.928-3.178 18.064-5.558 27.286-7.138s18.532-2.38 27.788-2.38c6.514 0 13.026 0.4 19.452 1.182 6.426 0.782 12.8 1.962 19.052 3.526 6.252 1.562 12.418 3.526 18.41 5.888 5.992 2.362 11.828 5.106 17.472 8.268l111.33-96.496c-11.098-14.468-19.348-30.064-24.766-46.2-5.384-16.066-7.972-32.634-7.78-49.168 0.174-16.448 3.108-32.844 8.736-48.614 5.592-15.7 13.876-30.794 24.802-44.758l-102.61-90.176c-5.176 2.344-10.49 4.394-15.908 6.148-5.402 1.772-10.908 3.23-16.464 4.412-5.576 1.182-11.186 2.066-16.83 2.64-5.644 0.59-11.306 0.886-16.952 0.886-8.788 0-17.542-0.712-26.122-2.136-8.562-1.424-16.952-3.544-25.044-6.392-8.076-2.83-15.84-6.392-23.168-10.63-7.312-4.238-14.172-9.188-20.478-14.832-12.54-11.236-21.606-24.194-27.25-37.95-5.61-13.704-7.85-28.188-6.774-42.622 1.06-14.364 5.402-28.658 12.922-42.03 7.504-13.322 18.15-25.756 31.906-36.49 6.844-5.35 14.154-10.004 21.78-14.016 7.624-3.978 15.562-7.312 23.708-9.97 8.128-2.64 16.482-4.638 24.906-5.958 8.424-1.338 16.934-1.998 25.41-1.998 8.458 0 16.9 0.66 25.184 1.998 8.284 1.32 16.43 3.316 24.28 5.958 7.868 2.656 15.458 5.992 22.664 9.97 7.208 4.012 14.016 8.666 20.322 14.016 9.692 8.232 17.454 17.49 23.29 27.372 5.87 9.9 9.796 20.46 11.794 31.296 1.998 10.856 2.066 21.988 0.192 33.018-1.892 11.064-5.748 22.006-11.532 32.444l107.004 92.432c7.26-3.508 14.728-6.564 22.336-9.188 7.608-2.622 15.37-4.81 23.222-6.564 7.85-1.736 15.804-3.04 23.794-3.926 8.006-0.868 16.048-1.302 24.106-1.302 9.448 0 18.914 0.608 28.292 1.806 9.378 1.216 18.688 3.022 27.84 5.436 9.136 2.414 18.132 5.436 26.886 9.066 8.754 3.63 17.282 7.886 25.462 12.748l100.614-87.204c-8.302-11.012-14.224-22.856-17.732-35.014-3.492-12.106-4.586-24.506-3.3-36.664 1.286-12.122 4.95-24.002 10.976-35.152 6.01-11.098 14.398-21.466 25.132-30.602 6.304-5.35 13.112-10.004 20.32-14.016 7.208-3.978 14.798-7.312 22.666-9.97 7.85-2.64 15.996-4.638 24.28-5.958C810.248 93.342 818.688 92.682 827.164 92.682L827.164 92.682z" p-id="2366"></path></svg>